<svg xmlns="http://www.w3.org/2000/svg" viewBox="0 0 64 64" fill="none">
  <rect width="56" height="56" x="4" y="4" rx="18" fill="#090B0E" />
  <rect width="55" height="55" x="4.5" y="4.5" rx="17.5" stroke="rgba(255,255,255,.08)" />
  <path
    d="M32 16.5c-5.92 0-11.15.96-15.11 2.73.81 1.46 2.06 2.54 3.63 3.15 2.58-1.08 6.89-1.7 11.48-1.7 4.58 0 8.89.62 11.47 1.7 1.58-.61 2.83-1.69 3.64-3.15-3.97-1.77-9.2-2.73-15.11-2.73Zm-3.11 8.38c.19 5.66.66 13.18 3.11 22.62 2.44-9.44 2.91-16.96 3.1-22.62 2.34-.17 5.02-.63 6.86-1.39-.61 1.96-1.94 3.55-3.73 4.54-1.21 10.53-3.77 18.24-6.23 23.72-2.46-5.48-5.03-13.19-6.24-23.72-1.78-.99-3.11-2.58-3.72-4.54 1.84.76 4.52 1.22 6.85 1.39Z"
    fill="#F5F7FA"
  />
</svg>
